<svg xmlns:xlink="http://www.w3.org/1999/xlink" xmlns="http://www.w3.org/2000/svg" width="377.01" height="76.53" viewBox="0 0 377.008 76.535"><path class="logo" d="M116.8 44.17h6.18v14h-6.18v-14zM47.37 8.1v6.17h-33.9V8.1h33.9zm0 27.05v6.18h-33.9v-6.18h33.9zM99.87 8.1v6.17h-33.9V8.1h33.9zm0 27.05v6.18h-33.9v-6.18h33.9zm0 27.06v6.2h-33.9v-6.2h33.9zm93.3-26.7l-.3-.6c.27-.2.63-.4 1.1-.5.4-.1.87-.3 1.35-.4l1.4-.3c.42-.1.76-.2 1-.3 2.05-.64 3.7-1.7 5-3.1 1.26-1.4 1.9-3.22 1.9-5.5 0-1.84-.47-3.6-1.4-5.2-.95-1.6-2.34-2.76-4.17-3.44l-1.2-.42-1.44-.43c-.4-.14-.9-.27-1.2-.4l-.6-.17H175V8.4h19.9c.03 0 .2.02.48.08l.93.18 1 .2.8.2c2 .47 3.8 1.16 5.5 2.06s3.1 2 4.3 3.27 2.1 2.7 2.77 4.4 1 3.6 1 5.7c0 3-.8 5.7-2.3 7.8-1.5 2.1-3.6 4-6.23 5.6v.6L222 68h-7.74L193.2 35.4zm74.13-27l39.3 59.9h-7.68l-17.64-26.9H253.2l-17.64 26.9h-7.68L267.3 8.5zm9.48 26.1L267.3 20l-9.6 14.64h19.08zm60.42 3.3L312.6 8.5h8.4l19.62 24.18c.04.04.1.1.15.18.06.1.1.13.15.13h.18l.12-.1c.04 0 .1-.1.18-.2l.18-.17L361.2 8.5h8.34l-24.6 29.45 24.54 30.5h-6.78L342.18 43.9l-.96-.96h-.3l-.48.47-.48.5-20.52 24.6h-6.78L337.2 38zM7.46 17.8h6.18v13.9H7.46V17.8zm52.5 0h6.2v13.9h-6.2V17.8zm0 26.4h6.2v14h-6.2v-14zm-52.5 0h6.18v24.2H7.46V44.16zm115.34-30V8.3c3.04 0 6.1.3 9.2.9 3.1.6 6.1 1.5 9 2.68 1.7.68 3.32 1.46 4.9 2.33h-23.1zm23.74 48c-1.77 1.03-3.6 1.94-5.53 2.7-2.9 1.2-5.9 2.1-9 2.7-3.1.6-6.1.9-9.2.9v-6.2l23.8-.1zm-7.03-3.9c1.6-.76 3.2-1.64 4.6-2.62 2.2-1.42 4-3.03 5.6-4.83 1.6-1.8 2.9-3.74 3.8-5.9.1-.25.2-.44.3-.7h7.5c-.2 1.05-.5 1.97-.9 2.97-1.1 2.7-2.6 5.2-4.4 7.43-1.1 1.3-2.3 2.54-3.64 3.68h-12.7zm15.1-17.1c.2-1 .3-1.9.3-3 0-1 0-2.03-.2-3h7.2c.2 1.07.2 2.06.2 3.17 0 1-.2 2.84-.2 2.84h-7.1zm-1.1-10c-.9-2-2.3-4-3.8-5.7-1.6-1.8-3.5-3.37-5.6-4.77-1.4-1-3-1.84-4.5-2.6h12.35c1.5 1.23 2.84 2.55 4.06 4 1.85 2.2 3.34 4.7 4.44 7.4.2.5.42 1.14.6 1.66h-7.45z" fill="#74AAEA"></path></svg>